{"glyphs":{"0":{"ha":1322,"x_min":113,"x_max":1209,"o":"m 661 -20 l 661 -20 q 487 -20 365 70 q 243 160 178 331 q 113 501 113 744 l 113 744 q 113 986 178 1157 q 243 1328 366 1419 q 488 1510 661 1510 l 661 1510 q 833 1510 956 1419 q 1079 1328 1144 1157 q 1209 986 1209 744 l 1209 744 q 1209 502 1145 331 q 1080 160 958 70 q 835 -20 661 -20 m 661 175 l 661 175 q 764 175 836 243 q 908 310 946 437 q 983 564 983 744 l 983 744 q 983 925 946 1053 q 908 1181 836 1249 q 764 1316 661 1316 l 661 1316 q 558 1316 486 1248 q 414 1180 376 1053 q 338 925 338 744 l 338 744 q 338 564 376 437 q 414 310 486 243 q 558 175 661 175"},"1":{"ha":850,"x_min":95,"x_max":685,"o":"m 421 1490 l 685 1490 l 685 0 l 459 0 l 459 1283 l 449 1283 l 95 1025 l 95 1254 l 421 1490"},"2":{"ha":1262,"x_min":142,"x_max":1128,"o":"m 1128 0 l 144 0 l 144 165 l 650 688 q 728 770 780 833 q 832 896 859 954 q 886 1012 886 1078 l 886 1078 q 886 1153 852 1207 q 817 1261 758 1290 q 698 1319 622 1319 l 622 1319 q 543 1319 484 1287 q 425 1254 393 1195 q 361 1136 361 1056 l 361 1056 l 142 1056 q 142 1192 205 1295 q 268 1397 377 1454 q 486 1510 626 1510 l 626 1510 q 768 1510 876 1454 q 983 1398 1044 1303 q 1105 1207 1105 1086 l 1105 1086 q 1105 1004 1075 926 q 1044 848 968 750 q 891 652 752 512 l 752 512 l 460 207 l 460 195 l 1128 195 l 1128 0"},"3":{"ha":1284,"x_min":116,"x_max":1171,"o":"m 643 -20 l 643 -20 q 492 -20 375 32 q 257 84 189 176 q 120 268 116 390 l 116 390 l 347 390 q 352 324 392 276 q 431 228 496 202 q 561 176 641 176 l 641 176 q 729 176 796 206 q 863 236 902 291 q 940 345 940 417 l 940 417 q 940 492 902 549 q 864 605 792 637 q 720 669 617 669 l 617 669 l 490 669 l 490 855 l 617 855 q 699 855 762 885 q 825 914 860 967 q 895 1020 895 1091 l 895 1091 q 895 1160 864 1211 q 833 1262 777 1291 q 721 1319 645 1319 l 645 1319 q 573 1319 511 1293 q 448 1266 409 1218 q 370 1170 367 1102 l 367 1102 l 147 1102 q 151 1223 219 1315 q 286 1407 399 1459 q 511 1510 649 1510 l 649 1510 q 792 1510 898 1454 q 1003 1398 1060 1306 q 1117 1213 1117 1104 l 1117 1104 q 1117 978 1047 892 q 977 805 860 774 l 860 774 l 860 763 q 959 748 1029 700 q 1099 651 1135 577 q 1171 503 1171 409 l 1171 409 q 1171 286 1103 189 q 1035 92 916 36 q 796 -20 643 -20"},"4":{"ha":1344,"x_min":114,"x_max":1234,"o":"m 819 290 l 114 290 l 114 474 l 756 1490 l 1038 1490 l 1038 484 l 1234 484 l 1234 290 l 1038 290 l 1038 0 l 819 0 l 819 290 m 352 484 l 821 484 l 821 1219 l 809 1219 l 352 496 l 352 484"},"5":{"ha":1235,"x_min":116,"x_max":1122,"o":"m 607 -20 l 607 -20 q 468 -20 359 33 q 250 86 186 179 q 121 272 116 390 l 116 390 l 338 390 q 343 327 380 278 q 417 228 477 200 q 536 172 607 172 l 607 172 q 692 172 758 211 q 824 250 862 320 q 899 389 899 478 l 899 478 q 899 568 860 640 q 821 711 753 751 q 685 791 597 791 l 597 791 q 529 791 461 768 q 393 744 352 707 l 352 707 l 142 737 l 225 1490 l 1048 1490 l 1048 1295 l 416 1295 l 369 879 l 377 879 q 421 922 494 950 q 567 978 650 978 l 650 978 q 752 978 838 942 q 924 905 988 838 q 1051 771 1087 681 q 1122 590 1122 482 l 1122 482 q 1122 337 1056 224 q 990 110 874 45 q 757 -20 607 -20"},"6":{"ha":1290,"x_min":113,"x_max":1178,"o":"m 659 -20 l 659 -20 q 559 -20 462 16 q 364 51 286 133 q 207 214 160 352 q 113 490 113 695 l 113 695 q 113 889 152 1040 q 191 1191 265 1296 q 339 1401 443 1456 q 547 1510 678 1510 l 678 1510 q 810 1510 914 1458 q 1017 1405 1083 1313 q 1148 1221 1164 1102 l 1164 1102 l 940 1102 q 917 1193 851 1252 q 784 1310 678 1310 l 678 1310 q 569 1310 492 1246 q 414 1182 374 1063 q 333 943 333 774 l 333 774 l 344 774 q 382 837 438 883 q 494 928 565 952 q 635 976 713 976 l 713 976 q 843 976 948 914 q 1053 851 1116 740 q 1178 629 1178 487 l 1178 487 q 1178 344 1113 229 q 1048 114 932 47 q 815 -20 659 -20 m 658 172 l 658 172 q 743 172 810 214 q 877 256 917 327 q 956 397 956 484 l 956 484 q 956 570 918 640 q 880 709 814 750 q 747 791 662 791 l 662 791 q 598 791 544 767 q 489 742 448 699 q 407 655 384 600 q 361 544 361 482 l 361 482 q 361 399 400 329 q 438 258 506 215 q 573 172 658 172"},"7":{"ha":1170,"x_min":90,"x_max":1079,"o":"m 431 0 l 192 0 l 840 1283 l 840 1295 l 90 1295 l 90 1490 l 1079 1490 l 1079 1287 l 431 0"},"8":{"ha":1289,"x_min":113,"x_max":1176,"o":"m 644 -20 l 644 -20 q 488 -20 368 34 q 248 88 181 183 q 113 277 113 397 l 113 397 q 113 491 153 571 q 192 651 260 705 q 328 758 414 773 l 414 773 l 414 781 q 301 808 234 901 q 167 993 167 1113 l 167 1113 q 167 1227 229 1317 q 290 1407 398 1459 q 505 1510 644 1510 l 644 1510 q 781 1510 889 1459 q 997 1407 1059 1317 q 1121 1227 1121 1113 l 1121 1113 q 1121 993 1053 901 q 985 808 876 781 l 876 781 l 876 773 q 959 758 1028 705 q 1096 651 1136 571 q 1176 491 1176 397 l 1176 397 q 1176 277 1108 183 q 1040 88 920 34 q 800 -20 644 -20 m 644 165 l 644 165 q 736 165 803 196 q 870 227 907 283 q 944 338 944 412 l 944 412 q 944 489 905 549 q 866 608 798 642 q 730 676 644 676 l 644 676 q 557 676 489 642 q 421 608 382 549 q 343 490 343 412 l 343 412 q 343 338 380 283 q 416 227 484 196 q 552 165 644 165 m 644 857 l 644 857 q 718 857 775 887 q 832 916 866 970 q 899 1023 899 1092 l 899 1092 q 899 1162 867 1214 q 835 1266 778 1295 q 720 1323 644 1323 l 644 1323 q 568 1323 511 1295 q 453 1266 421 1214 q 389 1162 389 1092 l 389 1092 q 389 1023 421 970 q 453 916 511 887 q 569 857 644 857"},"9":{"ha":1290,"x_min":113,"x_max":1178,"o":"m 614 -21 l 614 -21 q 480 -21 377 32 q 273 84 208 178 q 143 271 126 391 l 126 391 l 352 391 q 373 298 440 239 q 506 179 614 179 l 614 179 q 723 179 800 243 q 877 307 918 428 q 959 548 959 717 l 959 717 l 948 717 q 910 655 854 610 q 798 565 728 540 q 658 515 579 515 l 579 515 q 449 515 343 578 q 237 641 175 752 q 113 863 113 1004 l 113 1004 q 113 1147 178 1263 q 243 1378 361 1446 q 478 1513 635 1511 l 635 1511 q 734 1510 831 1474 q 927 1438 1006 1358 q 1084 1277 1131 1140 q 1178 1002 1178 796 l 1178 796 q 1178 602 1139 450 q 1099 298 1026 193 q 952 88 848 34 q 744 -21 614 -21 m 628 700 l 628 700 q 692 700 747 725 q 802 750 843 794 q 884 837 908 893 q 931 948 931 1011 l 931 1011 q 931 1092 892 1162 q 853 1232 786 1275 q 719 1318 633 1318 l 633 1318 q 549 1318 482 1277 q 414 1235 375 1165 q 336 1094 336 1008 l 336 1008 q 336 922 374 853 q 412 783 478 742 q 544 700 628 700"},"A":{"ha":1452,"x_min":51,"x_max":1401,"o":"m 298 0 l 51 0 l 581 1490 l 861 1490 l 1401 0 l 1154 0 l 1017 393 l 431 393 l 298 0 m 496 583 l 950 583 l 864 829 q 830 930 790 1067 l 790 1067 q 758 1173 720 1311 l 720 1311 q 682 1171 651 1064 l 651 1064 q 610 925 579 829 l 579 829 l 496 583"},"B":{"ha":1345,"x_min":165,"x_max":1241,"o":"m 738 0 l 165 0 l 165 1490 l 714 1490 q 873 1490 977 1438 q 1081 1386 1132 1298 q 1183 1209 1183 1099 l 1183 1099 q 1183 1006 1149 943 q 1115 879 1058 841 q 1000 802 931 784 l 931 784 l 931 769 q 1006 766 1077 722 q 1148 677 1195 597 q 1241 516 1241 401 l 1241 401 q 1241 288 1188 197 q 1134 106 1023 53 q 912 0 738 0 l 738 0 m 393 669 l 393 196 l 715 196 q 875 196 945 258 q 1015 320 1015 412 l 1015 412 q 1015 484 980 542 q 944 600 879 635 q 814 669 724 669 l 724 669 l 393 669 m 393 1295 l 393 845 l 692 845 q 767 845 828 874 q 889 903 924 956 q 959 1009 959 1080 l 959 1080 q 959 1172 895 1234 q 831 1295 698 1295 l 698 1295 l 393 1295"},"C":{"ha":1502,"x_min":113,"x_max":1399,"o":"m 784 -20 l 784 -20 q 591 -20 439 72 q 287 163 200 335 q 113 506 113 744 l 113 744 q 113 983 200 1155 q 287 1326 439 1418 q 591 1510 784 1510 l 784 1510 q 902 1510 1006 1476 q 1109 1442 1191 1377 q 1272 1312 1326 1219 q 1379 1126 1398 1008 l 1398 1008 l 1169 1008 q 1155 1079 1120 1134 q 1084 1188 1033 1226 q 982 1264 919 1283 q 856 1302 786 1302 l 786 1302 q 658 1302 557 1238 q 455 1173 397 1049 q 339 924 339 744 l 339 744 q 339 564 398 440 q 457 315 558 252 q 659 188 786 188 l 786 188 q 856 188 919 208 q 981 227 1033 265 q 1084 302 1120 357 q 1155 412 1169 482 l 1169 482 l 1399 482 q 1382 372 1330 281 q 1278 189 1197 121 q 1116 53 1012 17 q 907 -20 784 -20"},"D":{"ha":1478,"x_min":165,"x_max":1366,"o":"m 649 0 l 649 0 l 165 0 l 165 1490 l 664 1490 q 884 1490 1041 1401 q 1198 1312 1282 1146 q 1366 979 1366 747 l 1366 747 q 1366 514 1282 347 q 1197 180 1037 90 q 876 0 649 0 m 393 1290 l 393 200 l 637 200 q 806 200 918 263 q 1030 326 1086 449 q 1142 571 1142 747 l 1142 747 q 1142 922 1087 1043 q 1031 1164 922 1227 q 812 1290 649 1290 l 649 1290 l 393 1290"},"E":{"ha":1235,"x_min":165,"x_max":1109,"o":"m 1109 0 l 165 0 l 165 1490 l 1103 1490 l 1103 1294 l 393 1294 l 393 850 l 1052 850 l 1052 655 l 393 655 l 393 196 l 1109 196 l 1109 0"},"F":{"ha":1207,"x_min":165,"x_max":1092,"o":"m 393 0 l 165 0 l 165 1490 l 1092 1490 l 1092 1294 l 393 1294 l 393 815 l 1025 815 l 1025 620 l 393 620 l 393 0"},"G":{"ha":1531,"x_min":113,"x_max":1413,"o":"m 791 -20 l 791 -20 q 589 -20 437 73 q 284 166 199 338 q 113 509 113 744 l 113 744 q 113 982 200 1154 q 286 1325 437 1418 q 588 1510 781 1510 l 781 1510 q 901 1510 1006 1475 q 1110 1439 1193 1374 q 1275 1308 1329 1218 q 1382 1127 1400 1019 l 1400 1019 l 1166 1019 q 1146 1084 1111 1137 q 1076 1189 1028 1226 q 979 1263 918 1283 q 856 1302 783 1302 l 783 1302 q 657 1302 557 1238 q 456 1174 398 1050 q 339 925 339 745 q 339 565 398 441 q 456 317 558 253 q 660 188 792 188 l 792 188 q 912 188 1002 237 q 1091 285 1141 375 l 1141 375 q 1188 460 1190 576 l 1190 576 l 825 576 l 825 764 l 1413 764 l 1413 593 q 1413 405 1333 268 q 1252 130 1112 55 q 972 -20 791 -20"},"H":{"ha":1525,"x_min":165,"x_max":1360,"o":"m 393 0 l 165 0 l 165 1490 l 393 1490 l 393 860 l 1131 860 l 1131 1490 l 1360 1490 l 1360 0 l 1131 0 l 1131 664 l 393 664 l 393 0"},"I":{"ha":558,"x_min":165,"x_max":393,"o":"m 165 1490 l 393 1490 l 393 0 l 165 0 l 165 1490"},"J":{"ha":1178,"x_min":89,"x_max":1013,"o":"m 552 -20 l 552 -20 q 344 -20 217 98 q 89 216 89 433 l 89 433 l 89 516 l 318 516 l 318 432 q 318 305 382 239 q 446 173 552 173 l 552 173 q 658 173 722 239 q 786 305 786 432 l 786 432 l 786 1490 l 1013 1490 l 1013 434 q 1013 216 887 98 q 761 -20 552 -20"},"K":{"ha":1408,"x_min":165,"x_max":1353,"o":"m 393 0 l 165 0 l 165 1490 l 393 1490 l 393 1014 l 389 716 q 407 741 425 765 l 425 765 q 473 831 526 895 q 579 959 639 1027 l 639 1027 l 1057 1490 l 1347 1490 l 761 844 l 1353 0 l 1083 0 l 602 692 l 393 467 l 393 0"},"L":{"ha":1158,"x_min":165,"x_max":1068,"o":"m 1068 0 l 165 0 l 165 1490 l 393 1490 l 393 196 l 1068 196 l 1068 0"},"M":{"ha":1869,"x_min":165,"x_max":1705,"o":"m 387 0 l 165 0 l 165 1490 l 501 1490 l 826 635 q 840 597 858 539 q 875 481 894 413 q 913 345 930 279 l 930 279 q 933 266 936 254 l 936 254 q 939 265 942 276 l 942 276 q 959 341 978 409 q 997 477 1015 537 q 1033 597 1047 635 l 1047 635 l 1367 1490 l 1705 1490 l 1705 0 l 1478 0 l 1478 802 q 1478 848 1479 912 q 1480 976 1482 1048 q 1483 1119 1485 1192 l 1485 1192 q 1485 1231 1486 1268 l 1486 1268 q 1474 1225 1461 1182 l 1461 1182 q 1437 1104 1415 1032 q 1392 960 1372 901 q 1351 841 1337 802 l 1337 802 l 1032 0 l 837 0 l 528 802 q 513 840 494 899 q 474 957 451 1029 q 428 1100 404 1178 l 404 1178 q 391 1219 378 1261 l 378 1261 q 379 1231 380 1200 l 380 1200 q 381 1128 383 1055 q 384 982 386 917 q 387 851 387 802 l 387 802 l 387 0"},"N":{"ha":1549,"x_min":165,"x_max":1384,"o":"m 396 0 l 165 0 l 165 1490 l 428 1490 l 989 603 q 1017 559 1052 498 q 1087 437 1126 361 l 1126 361 q 1147 320 1167 275 l 1167 275 q 1164 319 1162 363 l 1162 363 q 1157 446 1155 519 q 1153 592 1153 642 l 1153 642 l 1153 1490 l 1384 1490 l 1384 0 l 1120 0 l 617 793 q 577 858 539 924 q 500 990 454 1077 l 454 1077 q 421 1136 379 1214 l 379 1214 q 383 1145 386 1082 l 386 1082 q 391 986 394 913 q 396 839 396 795 l 396 795 l 396 0"},"O":{"ha":1570,"x_min":113,"x_max":1457,"o":"m 786 -20 l 786 -20 q 593 -20 441 72 q 288 163 201 335 q 113 506 113 744 l 113 744 q 113 983 201 1155 q 288 1326 441 1418 q 593 1510 786 1510 l 786 1510 q 979 1510 1131 1418 q 1282 1326 1370 1155 q 1457 983 1457 744 l 1457 744 q 1457 506 1370 335 q 1282 163 1131 72 q 979 -20 786 -20 m 786 188 l 786 188 q 913 188 1014 252 q 1114 315 1173 440 q 1231 564 1231 744 l 1231 744 q 1231 926 1173 1051 q 1114 1175 1014 1239 q 913 1302 786 1302 l 786 1302 q 658 1302 557 1238 q 456 1174 398 1050 q 339 925 339 744 l 339 744 q 339 564 398 440 q 456 316 557 252 q 658 188 786 188"},"P":{"ha":1314,"x_min":165,"x_max":1215,"o":"m 393 0 l 165 0 l 165 1490 l 699 1490 q 871 1490 986 1426 q 1101 1362 1158 1253 q 1215 1144 1215 1006 q 1215 868 1158 759 q 1100 649 985 586 q 870 522 697 522 l 697 522 l 393 522 l 393 0 m 393 1295 l 393 715 l 675 715 q 785 715 853 753 q 921 791 953 857 q 984 923 984 1006 l 984 1006 q 984 1090 953 1156 q 921 1221 853 1258 q 784 1295 673 1295 l 673 1295 l 393 1295"},"Q":{"ha":1574,"x_min":113,"x_max":1457,"o":"m 786 -20 l 786 -20 q 593 -20 441 72 q 288 163 201 335 q 113 506 113 744 l 113 744 q 113 983 201 1155 q 288 1326 441 1418 q 593 1510 786 1510 q 979 1510 1131 1418 q 1282 1326 1370 1155 q 1457 983 1457 744 l 1457 744 q 1457 506 1370 335 l 1370 335 q 1305 209 1207 126 l 1207 126 l 1406 -135 l 1179 -135 l 1052 31 q 931 -20 786 -20 m 921 208 l 713 481 l 932 481 l 1073 298 q 1133 354 1173 440 l 1173 440 q 1231 564 1231 744 l 1231 744 q 1231 926 1173 1051 q 1114 1175 1014 1239 q 913 1302 786 1302 l 786 1302 q 658 1302 557 1238 q 456 1174 398 1050 q 339 925 339 744 l 339 744 q 339 564 398 440 q 456 316 557 252 q 658 188 786 188 l 786 188 q 858 188 921 208 l 921 208"},"R":{"ha":1327,"x_min":165,"x_max":1271,"o":"m 393 0 l 165 0 l 165 1490 l 699 1490 q 871 1490 986 1431 q 1101 1371 1158 1265 q 1215 1159 1215 1022 l 1215 1022 q 1215 884 1158 781 q 1100 677 985 620 l 985 620 q 965 610 943 602 l 943 602 l 1271 0 l 1012 0 l 710 563 q 704 563 697 563 l 697 563 l 393 563 l 393 0 m 393 1295 l 393 758 l 675 758 q 785 758 853 790 q 920 821 952 880 q 984 939 984 1022 l 984 1022 q 984 1106 952 1167 q 920 1228 852 1262 q 784 1295 673 1295 l 673 1295 l 393 1295"},"S":{"ha":1323,"x_min":106,"x_max":1217,"o":"m 665 -25 l 665 -25 q 498 -25 375 28 q 252 81 183 180 q 113 278 106 414 l 106 414 l 335 414 q 342 333 388 280 q 433 227 506 201 q 579 175 664 175 l 664 175 q 759 175 833 205 q 906 234 949 289 q 992 343 992 415 l 992 415 q 992 480 955 522 q 917 563 854 591 q 790 618 709 639 l 709 639 l 535 687 q 352 736 250 832 q 147 928 147 1081 l 147 1081 q 147 1210 217 1307 q 286 1403 406 1457 q 525 1510 675 1510 l 675 1510 q 828 1510 945 1457 q 1061 1403 1128 1310 q 1194 1217 1197 1098 l 1197 1098 l 975 1098 q 964 1200 881 1256 q 797 1312 670 1312 l 670 1312 q 580 1312 514 1284 q 447 1256 411 1207 q 374 1157 374 1094 l 374 1094 q 374 1023 418 980 q 461 936 524 911 q 586 885 643 870 l 643 870 l 788 832 q 859 814 935 784 q 1010 753 1074 705 q 1138 656 1178 585 q 1217 513 1217 412 l 1217 412 q 1217 286 1152 187 q 1087 88 964 32 q 840 -25 665 -25"},"T":{"ha":1337,"x_min":90,"x_max":1247,"o":"m 555 1294 l 90 1294 l 90 1490 l 1247 1490 l 1247 1294 l 784 1294 l 784 0 l 555 0 l 555 1294"},"U":{"ha":1516,"x_min":165,"x_max":1351,"o":"m 759 -23 l 759 -23 q 580 -23 446 46 q 312 115 239 236 q 165 356 165 512 l 165 512 l 165 1490 l 393 1490 l 393 531 q 393 430 438 352 q 482 274 564 229 q 646 184 759 184 l 759 184 q 871 184 953 229 q 1034 274 1078 352 q 1122 430 1122 531 l 1122 531 l 1122 1490 l 1351 1490 l 1351 512 q 1351 356 1278 236 q 1204 115 1071 46 q 937 -23 759 -23"},"V":{"ha":1452,"x_min":51,"x_max":1401,"o":"m 869 0 l 590 0 l 51 1490 l 297 1490 l 587 661 q 619 565 661 426 l 661 426 q 692 319 731 183 l 731 183 q 769 322 801 428 l 801 428 q 841 565 872 661 l 872 661 l 1154 1490 l 1401 1490 l 869 0"},"W":{"ha":2054,"x_min":51,"x_max":2003,"o":"m 719 0 l 455 0 l 51 1490 l 291 1490 l 506 636 q 526 557 543 472 q 560 387 577 300 l 577 300 q 584 260 591 219 l 591 219 q 599 260 607 300 l 607 300 q 624 387 642 472 q 660 557 681 636 l 681 636 l 902 1490 l 1152 1490 l 1371 636 q 1392 557 1410 472 q 1428 387 1446 300 l 1446 300 q 1453 261 1461 223 l 1461 223 l 1475 300 q 1491 387 1510 472 q 1528 557 1546 636 l 1546 636 l 1761 1490 l 2003 1490 l 1597 0 l 1334 0 l 1097 883 q 1070 987 1047 1109 l 1047 1109 q 1036 1166 1025 1227 l 1025 1227 q 1016 1171 1007 1118 l 1007 1118 q 986 999 955 883 l 955 883 l 719 0"},"X":{"ha":1435,"x_min":55,"x_max":1380,"o":"m 317 0 l 55 0 l 590 763 l 93 1490 l 358 1490 l 555 1196 q 603 1126 633 1075 q 663 1024 688 976 l 688 976 q 703 947 720 914 l 720 914 q 737 947 753 975 l 753 975 q 778 1023 809 1075 q 840 1126 887 1196 l 887 1196 l 1088 1490 l 1347 1490 l 852 770 l 1380 0 l 1114 0 l 871 356 q 829 418 801 463 q 773 507 750 550 l 750 550 q 735 577 718 609 l 718 609 q 702 578 687 552 l 687 552 q 663 509 635 464 q 607 419 563 356 l 563 356 l 317 0"},"Y":{"ha":1426,"x_min":51,"x_max":1375,"o":"m 828 0 l 600 0 l 600 593 l 51 1490 l 317 1490 l 597 1015 q 644 937 680 865 l 680 865 q 698 828 716 783 l 716 783 q 735 830 754 868 l 754 868 q 789 940 833 1015 l 833 1015 l 1110 1490 l 1375 1490 l 828 593 l 828 0"},"Z":{"ha":1312,"x_min":119,"x_max":1193,"o":"m 1193 0 l 125 0 l 125 150 l 770 1095 q 819 1166 876 1237 l 876 1237 q 900 1268 925 1299 l 925 1299 q 872 1296 820 1296 l 820 1296 q 724 1294 630 1294 l 630 1294 l 119 1294 l 119 1490 l 1187 1490 l 1187 1338 l 552 409 q 500 334 442 260 l 442 260 q 415 225 387 191 l 387 191 q 441 194 494 195 l 494 195 q 590 196 686 196 l 686 196 l 1193 196 l 1193 0"},"a":{"ha":1163,"x_min":83,"x_max":1015,"o":"m 461 -25 l 461 -25 q 355 -25 269 15 q 183 54 133 130 q 83 206 83 316 l 83 316 q 83 411 120 472 q 156 533 219 569 q 281 605 358 623 q 434 641 513 650 l 513 650 q 612 662 674 670 q 736 677 766 695 q 795 712 795 751 l 795 751 l 795 757 q 795 820 771 863 q 747 906 700 930 q 652 953 581 953 l 581 953 q 508 953 456 931 q 403 908 371 873 q 338 838 322 800 l 322 800 l 115 854 q 153 954 224 1015 q 295 1076 387 1104 q 479 1132 577 1132 l 577 1132 q 645 1132 721 1116 q 797 1100 864 1058 q 931 1016 973 940 q 1015 864 1015 742 l 1015 742 l 1015 0 l 802 0 l 802 153 l 791 153 q 769 110 726 69 q 683 28 618 2 q 552 -25 461 -25 m 510 152 l 510 152 q 600 152 664 187 q 728 222 762 280 q 796 338 796 403 l 796 403 l 796 546 q 784 534 751 525 q 717 515 674 508 q 631 500 591 495 q 551 490 525 487 l 525 487 q 463 479 412 460 q 360 441 330 406 q 299 371 299 313 l 299 313 q 299 260 327 224 q 354 188 401 170 q 448 152 510 152"},"b":{"ha":1266,"x_min":148,"x_max":1170,"o":"m 703 -22 l 703 -22 q 602 -22 538 13 q 473 47 437 93 q 400 139 380 175 l 380 175 l 362 175 l 362 0 l 148 0 l 148 1490 l 368 1490 l 368 936 l 380 936 q 400 971 436 1017 q 471 1063 535 1098 q 598 1132 703 1132 l 703 1132 q 837 1132 943 1064 q 1048 996 1109 867 q 1170 738 1170 556 l 1170 556 q 1170 376 1110 247 q 1050 117 945 48 q 839 -22 703 -22 m 654 165 l 654 165 q 750 165 815 217 q 880 269 913 358 q 945 447 945 558 l 945 558 q 945 668 913 756 q 880 843 816 894 q 751 945 654 945 l 654 945 q 560 945 495 897 q 430 848 397 762 q 364 675 364 558 l 364 558 q 364 442 398 354 q 431 265 496 215 q 561 165 654 165"},"c":{"ha":1182,"x_min":96,"x_max":1089,"o":"m 618 -23 l 618 -23 q 460 -23 343 49 q 226 121 161 251 q 96 381 96 553 l 96 553 q 96 727 161 858 q 226 988 343 1060 q 460 1132 618 1132 l 618 1132 q 705 1132 781 1110 q 857 1087 919 1045 q 980 1002 1023 941 q 1065 879 1086 802 l 1086 802 l 877 752 q 866 795 843 831 q 820 866 788 892 q 755 918 713 932 q 670 946 619 946 l 619 946 q 518 946 452 893 q 385 839 353 750 q 320 661 320 553 l 320 553 q 320 446 353 358 q 385 269 452 216 q 518 163 619 163 l 619 163 q 671 163 714 178 q 757 192 791 219 q 825 245 848 283 q 871 320 881 365 l 881 365 l 1089 315 q 1069 236 1026 174 q 983 111 922 67 q 860 23 783 0 q 706 -23 618 -23"},"d":{"ha":1266,"x_min":96,"x_max":1118,"o":"m 564 -22 l 564 -22 q 428 -22 322 48 q 216 117 156 247 q 96 376 96 556 l 96 556 q 96 738 157 867 q 218 996 324 1064 q 430 1132 564 1132 l 564 1132 q 668 1132 732 1098 q 795 1063 831 1017 q 867 971 886 936 l 886 936 l 898 936 l 898 1490 l 1118 1490 l 1118 0 l 904 0 l 904 175 l 886 175 q 867 139 830 93 q 793 47 729 13 q 665 -22 564 -22 m 612 165 l 612 165 q 706 165 771 215 q 835 265 869 354 q 902 442 902 558 l 902 558 q 902 675 869 762 q 836 848 772 897 q 707 945 612 945 l 612 945 q 515 945 451 894 q 386 843 354 756 q 321 668 321 558 l 321 558 q 321 447 354 358 q 387 269 452 217 q 517 165 612 165"},"e":{"ha":1203,"x_min":96,"x_max":1110,"o":"m 630 -23 l 630 -23 q 465 -23 345 48 q 225 119 161 248 q 96 377 96 551 l 96 551 q 96 723 160 854 q 223 985 339 1059 q 455 1132 611 1132 l 611 1132 q 707 1132 796 1101 q 885 1069 956 1002 q 1027 935 1069 829 q 1110 722 1110 570 l 1110 570 l 1110 492 l 317 492 q 321 391 357 320 l 357 320 q 396 240 467 200 q 538 159 632 159 l 632 159 q 694 159 744 177 q 794 194 831 230 q 867 265 886 317 l 886 317 l 1093 268 q 1066 182 1003 116 q 939 50 845 14 q 750 -23 630 -23 m 318 656 l 318 656 l 892 656 q 885 726 862 784 l 862 784 q 830 862 768 906 q 705 950 611 950 l 611 950 q 518 950 452 905 q 386 860 352 787 l 352 787 q 323 726 318 656"},"f":{"ha":777,"x_min":20,"x_max":749,"o":"m 452 1118 l 702 1118 l 702 939 l 452 939 l 452 0 l 232 0 l 232 939 l 20 939 l 20 1118 l 232 1118 l 232 1246 q 232 1350 279 1420 q 325 1490 401 1525 q 477 1560 565 1560 l 565 1560 q 632 1560 680 1549 q 727 1538 749 1530 l 749 1530 l 698 1352 q 682 1357 659 1363 q 635 1368 600 1368 l 600 1368 q 522 1368 487 1329 q 452 1290 452 1216 l 452 1216 l 452 1118"},"g":{"ha":1269,"x_min":96,"x_max":1121,"o":"m 615 -442 l 615 -442 q 486 -442 391 -409 q 296 -376 235 -321 q 173 -266 141 -199 l 141 -199 l 325 -112 q 345 -144 379 -179 q 412 -215 469 -240 q 526 -265 615 -265 l 615 -265 q 743 -265 823 -204 q 902 -144 902 -15 l 902 -15 l 902 203 l 883 203 q 863 166 828 123 q 792 80 729 49 q 665 17 563 17 l 563 17 q 431 17 326 79 q 220 141 158 263 q 96 385 96 563 l 96 563 q 96 741 158 869 q 219 996 326 1064 q 432 1132 566 1132 l 566 1132 q 669 1132 734 1098 q 798 1064 835 1018 q 871 971 890 936 l 890 936 l 906 936 l 906 1118 l 1121 1118 l 1121 -16 q 1121 -163 1055 -257 q 988 -352 874 -397 q 759 -442 615 -442 m 614 200 l 614 200 q 708 200 773 244 q 837 287 870 370 q 903 452 903 566 l 903 566 q 903 679 870 764 q 837 849 773 897 q 708 945 614 945 l 614 945 q 517 945 452 895 q 387 844 354 759 q 321 673 321 566 l 321 566 q 321 457 354 375 q 387 292 453 246 q 518 200 614 200"},"h":{"ha":1232,"x_min":148,"x_max":1084,"o":"m 368 662 l 368 662 l 368 0 l 148 0 l 148 1490 l 366 1490 l 366 918 q 411 1012 479 1063 l 479 1063 q 572 1132 704 1132 l 704 1132 q 818 1132 904 1084 q 989 1036 1037 943 q 1084 849 1084 710 l 1084 710 l 1084 0 l 864 0 l 864 683 q 864 804 801 872 q 738 940 628 940 l 628 940 q 554 940 495 908 q 436 875 402 813 q 368 751 368 662"},"i":{"ha":516,"x_min":120,"x_max":397,"o":"m 368 0 l 148 0 l 148 1118 l 368 1118 l 368 0 m 259 1289 l 259 1289 q 202 1289 162 1327 q 121 1365 121 1419 l 121 1419 q 121 1474 162 1512 q 202 1550 259 1550 l 259 1550 q 316 1550 357 1512 q 398 1474 398 1419 l 398 1419 q 398 1365 357 1327 q 316 1289 259 1289"},"j":{"ha":516,"x_min":-34,"x_max":397,"o":"m 147 -71 l 147 1118 l 368 1118 l 368 -72 q 369 -186 328 -263 q 286 -340 206 -379 q 126 -418 10 -418 l 10 -418 l -34 -418 l -34 -229 l 1 -229 q 79 -229 113 -188 q 147 -148 147 -71 l 147 -71 m 258 1289 l 258 1289 q 201 1289 161 1327 q 120 1365 120 1419 l 120 1419 q 120 1474 161 1512 q 201 1550 258 1550 l 258 1550 q 315 1550 356 1512 q 397 1474 397 1419 l 397 1419 q 397 1365 356 1327 q 315 1289 258 1289"},"k":{"ha":1145,"x_min":148,"x_max":1124,"o":"m 368 0 l 148 0 l 148 1490 l 368 1490 l 368 646 l 388 646 l 829 1118 l 1093 1118 l 643 636 l 1124 0 l 852 0 l 475 501 l 368 394 l 368 0"},"l":{"ha":516,"x_min":148,"x_max":368,"o":"m 148 1490 l 368 1490 l 368 0 l 148 0 l 148 1490"},"m":{"ha":1819,"x_min":148,"x_max":1671,"o":"m 368 0 l 148 0 l 148 1118 l 357 1118 l 362 910 q 384 971 420 1015 l 420 1015 q 470 1076 537 1107 q 604 1137 677 1137 l 677 1137 q 799 1137 874 1062 l 874 1062 q 934 1001 963 903 l 963 903 q 985 962 1023 1007 l 1023 1007 q 1077 1071 1154 1104 q 1230 1137 1317 1137 l 1317 1137 q 1416 1137 1497 1094 q 1577 1051 1624 966 q 1671 881 1671 754 l 1671 754 l 1671 0 l 1451 0 l 1451 732 q 1451 844 1389 894 q 1326 944 1241 944 l 1241 944 q 1172 944 1122 915 q 1072 886 1045 835 q 1018 783 1018 716 l 1018 716 l 1018 0 l 801 0 l 801 746 q 801 836 744 890 q 686 944 597 944 l 597 944 q 536 944 484 916 q 431 887 400 832 q 368 776 368 695 l 368 695 l 368 0"},"n":{"ha":1232,"x_min":148,"x_max":1084,"o":"m 368 662 l 368 662 l 368 0 l 148 0 l 148 1118 l 358 1118 l 360 904 q 406 1009 479 1063 l 479 1063 q 572 1132 704 1132 l 704 1132 q 818 1132 903 1084 q 988 1036 1036 943 q 1084 849 1084 710 l 1084 710 l 1084 0 l 864 0 l 864 683 q 864 804 801 872 q 738 940 628 940 l 628 940 q 554 940 495 908 q 436 875 402 813 q 368 751 368 662"},"o":{"ha":1237,"x_min":96,"x_max":1141,"o":"m 618 -23 l 618 -23 q 461 -23 344 49 q 226 121 161 251 q 96 381 96 553 l 96 553 q 96 727 161 858 q 226 988 344 1060 q 461 1132 618 1132 l 618 1132 q 776 1132 894 1060 q 1011 988 1076 858 q 1141 727 1141 553 l 1141 553 q 1141 381 1076 251 q 1011 121 894 49 q 776 -23 618 -23 m 618 163 l 618 163 q 720 163 787 217 q 853 270 886 359 q 918 447 918 553 l 918 553 q 918 660 886 750 q 853 839 787 893 q 720 946 618 946 l 618 946 q 517 946 451 893 q 385 839 353 750 q 320 661 320 553 l 320 553 q 320 447 353 359 q 385 270 451 217 q 517 163 618 163"},"p":{"ha":1266,"x_min":148,"x_max":1170,"o":"m 368 -418 l 148 -418 l 148 1118 l 362 1118 l 362 936 l 380 936 q 400 971 436 1017 q 471 1063 535 1098 q 598 1132 703 1132 l 703 1132 q 837 1132 943 1064 q 1048 996 1109 867 q 1170 738 1170 556 l 1170 556 q 1170 376 1110 247 q 1050 117 945 48 q 839 -22 703 -22 l 703 -22 q 602 -22 538 13 q 473 47 437 93 q 400 139 380 175 l 380 175 l 368 175 l 368 -418 m 654 165 l 654 165 q 750 165 815 217 q 880 269 913 358 q 945 447 945 558 l 945 558 q 945 668 913 756 q 880 843 816 894 q 751 945 654 945 l 654 945 q 560 945 495 897 q 430 848 397 762 q 364 675 364 558 l 364 558 q 364 442 398 354 q 431 265 496 215 q 561 165 654 165"},"q":{"ha":1266,"x_min":96,"x_max":1118,"o":"m 1118 1118 l 1118 -418 l 898 -418 l 898 175 l 886 175 q 867 139 830 93 q 793 47 729 13 q 665 -22 564 -22 l 564 -22 q 428 -22 322 48 q 216 117 156 247 q 96 376 96 556 l 96 556 q 96 738 157 867 q 218 996 324 1064 q 430 1132 564 1132 l 564 1132 q 668 1132 732 1098 q 795 1063 831 1017 q 867 971 886 936 l 886 936 l 904 936 l 904 1118 l 1118 1118 m 612 165 l 612 165 q 706 165 771 215 q 835 265 869 354 q 902 442 902 558 l 902 558 q 902 675 869 762 q 836 848 772 897 q 707 945 612 945 l 612 945 q 515 945 451 894 q 386 843 354 756 q 321 668 321 558 l 321 558 q 321 447 354 358 q 387 269 452 217 q 517 165 612 165"},"r":{"ha":792,"x_min":148,"x_max":749,"o":"m 368 0 l 148 0 l 148 1118 l 361 1118 l 361 938 l 373 938 q 404 1030 481 1082 q 558 1134 656 1134 l 656 1134 q 677 1134 704 1133 q 731 1131 749 1128 l 749 1128 l 749 918 q 737 922 703 926 q 669 930 634 930 l 634 930 q 558 930 497 898 q 436 866 402 810 q 368 753 368 679 l 368 679 l 368 0"},"s":{"ha":1103,"x_min":98,"x_max":1010,"o":"m 549 -23 l 549 -23 q 428 -23 334 12 q 239 47 179 116 q 118 184 98 283 l 98 283 l 305 326 q 328 239 391 197 q 454 155 551 155 l 551 155 q 657 155 720 200 q 783 244 783 306 l 783 306 q 783 360 745 395 q 706 430 626 447 l 626 447 l 438 490 q 282 525 206 602 q 130 679 130 799 l 130 799 q 130 899 186 974 q 242 1049 339 1091 q 436 1132 563 1132 l 563 1132 q 684 1132 770 1097 q 856 1062 910 999 q 963 936 986 853 l 986 853 l 789 810 q 768 869 716 914 q 664 958 565 958 l 565 958 q 474 958 413 917 q 352 876 352 813 l 352 813 q 352 757 393 723 q 433 688 525 667 l 525 667 l 705 627 q 860 592 935 517 q 1010 442 1010 325 l 1010 325 q 1010 223 952 145 q 893 66 790 22 q 686 -23 549 -23"},"t":{"ha":697,"x_min":20,"x_max":657,"o":"m 403 1118 l 626 1118 l 626 939 l 403 939 l 403 302 q 403 235 432 204 q 460 172 525 172 l 525 172 q 542 172 570 176 q 598 180 618 184 l 618 184 l 657 8 q 622 -4 582 -9 q 542 -15 503 -15 l 503 -15 q 351 -15 267 64 q 183 142 183 284 l 183 284 l 183 939 l 20 939 l 20 1118 l 183 1118 l 183 1384 l 403 1384 l 403 1118"},"u":{"ha":1232,"x_min":148,"x_max":1084,"o":"m 529 -14 l 529 -14 q 415 -14 329 34 q 243 82 196 176 q 148 270 148 408 l 148 408 l 148 1118 l 368 1118 l 368 435 q 368 314 432 246 q 495 178 604 178 l 604 178 q 679 178 738 211 q 796 243 830 306 q 864 368 864 456 l 864 456 l 864 1118 l 1084 1118 l 1084 0 l 874 0 l 873 218 q 827 109 751 54 l 751 54 q 657 -14 529 -14"},"v":{"ha":1177,"x_min":46,"x_max":1130,"o":"m 708 0 l 468 0 l 46 1118 l 284 1118 l 505 483 q 542 378 568 273 l 568 273 q 579 230 590 187 l 590 187 q 600 230 611 273 l 611 273 q 637 378 673 483 l 673 483 l 894 1118 l 1130 1118 l 708 0"},"w":{"ha":1698,"x_min":57,"x_max":1641,"o":"m 614 0 l 393 0 l 57 1118 l 289 1118 l 412 655 q 439 551 470 424 l 470 424 q 493 330 514 220 l 514 220 q 536 326 558 418 l 558 418 q 589 546 617 655 l 617 655 l 740 1118 l 960 1118 l 1081 655 q 1109 549 1140 421 l 1140 421 q 1162 328 1183 221 l 1183 221 q 1204 327 1226 419 l 1226 419 q 1256 547 1284 655 l 1284 655 l 1407 1118 l 1641 1118 l 1304 0 l 1083 0 l 945 481 q 924 554 904 634 q 884 713 865 796 l 865 796 q 857 831 849 866 l 849 866 q 841 831 833 797 l 833 797 q 813 713 793 633 q 773 552 752 481 l 752 481 l 614 0"},"x":{"ha":1141,"x_min":57,"x_max":1084,"o":"m 302 0 l 57 0 l 439 574 l 80 1118 l 328 1118 l 454 914 q 506 830 546 753 l 546 753 q 560 724 576 695 l 576 695 q 590 724 604 753 l 604 753 q 640 830 694 914 l 694 914 l 823 1118 l 1067 1118 l 703 566 l 1084 0 l 837 0 l 687 238 q 635 321 596 396 l 596 396 q 582 423 568 449 l 568 449 q 555 423 542 396 l 542 396 q 506 321 454 238 l 454 238 l 302 0"},"y":{"ha":1178,"x_min":46,"x_max":1132,"o":"m 133 -402 l 133 -402 l 187 -223 l 212 -229 q 269 -244 315 -237 q 360 -230 394 -194 q 427 -159 447 -87 l 447 -87 l 471 -5 l 46 1118 l 284 1118 l 505 483 q 542 377 567 272 l 567 272 q 576 231 586 190 l 586 190 q 597 231 608 273 l 608 273 q 634 378 671 483 l 671 483 l 896 1118 l 1132 1118 l 646 -155 q 612 -245 563 -305 q 513 -365 445 -395 q 377 -426 287 -426 l 287 -426 q 235 -426 194 -418 q 153 -411 133 -402"},"z":{"ha":1145,"x_min":124,"x_max":1021,"o":"m 1021 0 l 124 0 l 124 150 l 726 916 l 726 926 l 143 926 l 143 1118 l 1001 1118 l 1001 956 l 422 202 l 422 192 l 1021 192 l 1021 0"}," ":{"ha":546,"x_min":0,"x_max":0,"o":""},".":{"ha":621,"x_min":163,"x_max":458,"o":"m 311 -15 l 311 -15 q 249 -15 206 28 q 163 71 163 132 l 163 132 q 163 194 206 237 q 249 279 311 279 l 311 279 q 372 279 415 237 q 458 194 458 132 l 458 132 q 458 71 415 28 q 372 -15 311 -15"},",":{"ha":621,"x_min":125,"x_max":450,"o":"m 285 -371 l 125 -371 l 213 214 l 450 214 l 285 -371"},"'":{"ha":641,"x_min":207,"x_max":433,"o":"m 408 905 l 232 905 l 207 1490 l 433 1490 l 408 905"},"-":{"ha":947,"x_min":143,"x_max":805,"o":"m 143 723 l 805 723 l 805 533 l 143 533 l 143 723"},"!":{"ha":623,"x_min":163,"x_max":460,"o":"m 417 477 l 205 477 l 189 1490 l 433 1490 l 417 477 m 312 -15 l 312 -15 q 249 -15 206 27 q 163 69 163 131 l 163 131 q 163 193 206 235 q 249 277 312 277 l 312 277 q 376 277 418 235 q 460 193 460 131 l 460 131 q 460 69 418 27 q 376 -15 312 -15"},"?":{"ha":1080,"x_min":81,"x_max":980,"o":"m 595 452 l 385 452 l 385 467 q 385 601 411 675 q 436 749 484 793 q 531 836 597 876 l 597 876 q 664 917 709 975 q 754 1033 754 1115 l 754 1115 q 754 1179 725 1226 q 695 1272 645 1298 q 594 1323 532 1323 l 532 1323 q 476 1323 426 1300 q 375 1277 342 1229 q 309 1180 304 1104 l 304 1104 l 81 1104 q 85 1237 147 1327 q 208 1417 309 1464 q 410 1510 532 1510 l 532 1510 q 667 1510 767 1461 q 867 1411 924 1322 q 980 1232 980 1114 l 980 1114 q 980 991 925 905 q 869 819 770 760 l 770 760 q 708 722 669 687 q 630 651 613 601 q 595 551 595 467 l 595 467 l 595 452 m 492 -15 l 492 -15 q 429 -15 386 27 q 343 69 343 131 l 343 131 q 343 193 386 235 q 429 277 492 277 l 492 277 q 556 277 599 235 q 641 193 641 131 l 641 131 q 641 69 599 27 q 556 -15 492 -15"},"&":{"ha":1338,"x_min":96,"x_max":1314,"o":"m 580 -21 l 580 -21 q 430 -21 322 34 q 213 89 155 182 q 96 275 96 390 l 96 390 q 96 486 135 556 q 173 626 242 686 l 242 686 q 305 741 385 799 l 385 799 q 370 817 356 834 l 356 834 q 294 909 258 987 q 221 1064 221 1155 l 221 1155 q 221 1257 268 1336 q 314 1415 399 1460 q 484 1505 598 1505 l 598 1505 q 713 1505 796 1461 q 878 1416 923 1341 q 968 1266 968 1174 l 968 1174 q 968 1106 943 1047 q 918 988 874 938 q 829 888 770 844 l 770 844 l 668 769 l 965 415 q 978 440 989 467 l 989 467 q 1026 562 1026 679 l 1026 679 l 1225 679 q 1225 535 1193 436 q 1160 336 1114 273 l 1114 273 q 1107 264 1100 255 l 1100 255 l 1314 0 l 1064 0 l 964 117 q 892 50 792 16 l 792 16 q 684 -21 580 -21 m 841 262 l 508 652 l 470 624 q 388 564 353 510 q 317 456 317 390 l 317 390 q 317 323 350 272 q 382 221 440 193 q 498 165 574 165 l 574 165 q 660 165 741 201 l 741 201 q 794 225 841 262 l 841 262 m 547 915 l 547 915 l 639 980 q 667 1000 697 1027 q 726 1054 746 1090 q 766 1126 766 1172 l 766 1172 q 766 1236 723 1279 q 679 1321 602 1321 l 602 1321 q 550 1321 511 1300 q 471 1279 450 1242 q 428 1205 428 1155 l 428 1155 q 428 1101 453 1051 q 478 1001 522 947 l 522 947 q 534 931 547 915"},"@":{"ha":2012,"x_min":113,"x_max":1900,"o":"m 1050 -406 l 1050 -406 q 825 -406 651 -344 q 476 -283 356 -164 q 236 -45 175 128 q 113 300 113 522 l 113 522 q 113 736 175 908 q 236 1079 355 1201 q 473 1322 644 1387 q 815 1452 1033 1452 l 1033 1452 q 1243 1452 1404 1386 q 1565 1320 1676 1206 q 1786 1091 1843 944 q 1900 796 1900 634 l 1900 634 q 1900 521 1885 413 q 1870 305 1831 219 q 1791 132 1719 81 q 1647 29 1532 29 l 1532 29 q 1476 29 1416 46 q 1356 62 1312 99 q 1268 136 1259 197 l 1259 197 l 1251 197 q 1224 129 1154 81 q 1083 33 968 33 l 968 33 q 834 33 742 98 q 650 163 603 276 q 556 388 556 532 l 556 532 q 556 670 610 779 q 664 887 759 949 q 854 1011 977 1011 l 977 1011 q 1073 1011 1140 976 q 1206 941 1234 897 l 1234 897 l 1244 897 l 1244 987 l 1418 987 l 1418 323 q 1418 267 1448 228 q 1478 188 1536 188 l 1536 188 q 1605 188 1644 235 q 1682 282 1698 379 q 1713 476 1713 628 l 1713 628 q 1713 760 1671 878 q 1629 995 1545 1086 q 1461 1176 1334 1228 q 1207 1280 1035 1280 l 1035 1280 q 862 1280 727 1229 q 591 1177 498 1079 q 405 981 357 840 q 308 699 308 521 l 308 521 q 308 340 357 200 q 405 59 501 -37 q 597 -133 738 -183 q 878 -233 1062 -233 l 1062 -233 q 1143 -233 1219 -219 q 1295 -205 1356 -186 q 1416 -168 1449 -156 l 1449 -156 l 1504 -318 q 1457 -339 1383 -359 q 1309 -380 1222 -393 q 1135 -406 1050 -406 m 982 206 l 982 206 q 1074 206 1132 243 q 1190 280 1217 354 q 1244 428 1244 539 l 1244 539 q 1244 651 1215 716 q 1186 780 1128 808 q 1070 835 986 835 l 986 835 q 906 835 850 795 q 793 755 763 688 q 733 621 733 539 l 733 539 q 733 450 759 374 q 784 298 839 252 q 893 206 982 206"},":":{"ha":621,"x_min":163,"x_max":458,"o":"m 311 -15 l 311 -15 q 249 -15 206 28 q 163 71 163 132 l 163 132 q 163 194 206 237 q 249 279 311 279 l 311 279 q 372 279 415 237 q 458 194 458 132 l 458 132 q 458 71 415 28 q 372 -15 311 -15 m 311 772 l 311 772 q 249 772 206 815 q 163 858 163 919 l 163 919 q 163 981 206 1024 q 249 1066 311 1066 l 311 1066 q 372 1066 415 1024 q 458 981 458 919 l 458 919 q 458 858 415 815 q 372 772 311 772"},";":{"ha":646,"x_min":125,"x_max":483,"o":"m 285 -371 l 125 -371 l 213 214 l 450 214 l 285 -371 m 336 772 l 336 772 q 274 772 231 815 q 188 858 188 919 l 188 919 q 188 981 231 1024 q 274 1066 336 1066 l 336 1066 q 397 1066 440 1024 q 483 981 483 919 l 483 919 q 483 858 440 815 q 397 772 336 772"},"/":{"ha":757,"x_min":40,"x_max":717,"o":"m 520 1560 l 717 1560 l 237 -224 l 40 -224 l 520 1560"},"(":{"ha":755,"x_min":202,"x_max":669,"o":"m 202 607 l 202 607 q 202 771 236 950 q 269 1128 327 1294 q 385 1459 460 1581 l 460 1581 l 669 1581 q 594 1425 539 1256 q 484 1086 455 920 q 426 754 426 607 l 426 607 q 426 475 452 340 q 477 205 531 54 q 585 -98 669 -279 l 669 -279 l 460 -279 q 333 -64 268 161 q 202 386 202 607"},")":{"ha":755,"x_min":86,"x_max":554,"o":"m 296 -279 l 86 -279 q 173 -94 227 59 q 280 211 305 345 q 330 479 330 607 l 330 607 q 330 754 301 920 q 271 1086 217 1256 q 162 1425 86 1581 l 86 1581 l 296 1581 q 371 1459 430 1294 q 488 1128 521 949 q 554 770 554 607 l 554 607 q 554 383 488 158 q 421 -67 296 -279 l 296 -279"}}}
